HIERARCHY
ROOT Hips
{
  OFFSET 0 0 0
  CHANNELS 6 Xposition Yposition Zposition Zrotation Yrotation Xrotation
  JOINT LeftThigh
  {
    OFFSET 8.409438 0 -5.917753
    CHANNELS 3 Zrotation Yrotation Xrotation
    JOINT LeftLeg
    {
      OFFSET 0 0 -42.358652
      CHANNELS 3 Zrotation Yrotation Xrotation
      JOINT LeftFoot
      {
        OFFSET 0 0 -39.357303
        CHANNELS 3 Zrotation Yrotation Xrotation
      }
    }
  }
  JOINT RightThigh
  {
    OFFSET -8.409438 0 -5.917753
    CHANNELS 3 Zrotation Yrotation Xrotation
    JOINT RightLeg
    {
      OFFSET 0 0 -42.358652
      CHANNELS 3 Zrotation Yrotation Xrotation
      JOINT RightFoot
      {
        OFFSET 0 0 -39.357303
        CHANNELS 3 Zrotation Yrotation Xrotation
      }
    }
  }
  JOINT SpineLow
  {
    OFFSET 0 0 4.719101
    CHANNELS 3 Zrotation Yrotation Xrotation
    JOINT SpineMid
    {
      OFFSET 0 0 12.899191
      CHANNELS 3 Zrotation Yrotation Xrotation
      JOINT Chest
      {
        OFFSET 0 0 12.899191
        CHANNELS 3 Zrotation Yrotation Xrotation
        JOINT LeftShoulder
        {
          OFFSET 7.550562 1.41573 9.438202
          CHANNELS 3 Zrotation Yrotation Xrotation
          JOINT LeftArm
          {
            OFFSET 9.155056 0 4.247191
            CHANNELS 3 Zrotation Yrotation Xrotation
            JOINT LeftForearm
            {
              OFFSET 0 0 25.771955
              CHANNELS 3 Zrotation Yrotation Xrotation
              JOINT LeftHand
              {
                OFFSET 0 0 25.197169
                CHANNELS 3 Zrotation Yrotation Xrotation
              }
            }
          }
        }
        JOINT RightShoulder
        {
          OFFSET -7.550562 1.41573 9.438202
          CHANNELS 3 Zrotation Yrotation Xrotation
          JOINT RightArm
          {
            OFFSET -9.155056 0 4.247191
            CHANNELS 3 Zrotation Yrotation Xrotation
            JOINT RightForearm
            {
              OFFSET 0 0 -25.771955
              CHANNELS 3 Zrotation Yrotation Xrotation
              JOINT RightHand
              {
                OFFSET 0 0 -25.197169
                CHANNELS 3 Zrotation Yrotation Xrotation
              }
            }
          }
        }
        JOINT Neck
        {
          OFFSET 0 0 15.101124
          CHANNELS 3 Zrotation Yrotation Xrotation
          JOINT Head
          {
            OFFSET 0 0 11.325843
            CHANNELS 3 Zrotation Yrotation Xrotation
            End Site
            {
              OFFSET 0 0 14.157303
            }
          }
        }
      }
    }
  }
}
MOTION
Frames: 16
Frame Time: 0.0
0.0  101.685394  0.0  -1.729085  8.034545  -100.303287  10.789868  -23.736521  3.342121  -8.344231  14.860077  23.614857  4.313642  4.260854  4.014476  -13.116916  11.210458  0.814157  -4.903884  3.523523  17.031448  3.289973  2.212537  -0.185371  -4.440866  0.894972  2.537171  -12.036408  2.898491  6.748113  -12.036409  2.898491  6.748113  -14.807485  27.05037  10.631606  178.635713  66.90743  -157.385166  20.447014  -12.912701  10.849653  69.58175  -2.065607  -2.765746  13.329543  -5.783506  15.478908  59.577469  8.57275  36.426111  -9.188481  -26.052899  -103.823929  62.653291  24.580997  4.533543  13.438638  -2.045558  0.334716  10.07903  -1.527684  0.29619  
0.0  101.685394  0.0  -1.637254  8.1294  -100.21202  10.853017  -23.647275  3.269835  -8.427358  14.902453  23.566883  4.285147  4.240749  4.027087  -13.0831  11.293429  0.739236  -4.959416  3.539887  17.123937  3.255016  2.248561  -0.190084  -4.444629  0.894206  2.514692  -12.047841  2.892723  6.686814  -12.047842  2.892723  6.686814  -14.702655  27.096138  10.591788  178.168202  66.963352  -157.66225  20.397392  -13.239181  11.014219  69.658689  -1.972902  -2.640694  13.327296  -5.753682  15.503749  59.359903  8.755451  36.326781  -9.088182  -25.898467  -103.664877  62.719551  24.002193  4.654254  13.390178  -1.986237  0.307245  10.042627  -1.48379  0.274113  
0.0  101.685394  0.0  -1.576152  8.286283  -100.08218  10.4972  -23.478872  3.019459  -8.338876  14.917885  23.630477  4.372993  4.272884  4.12628  -13.014517  11.313799  0.74112  -4.990408  3.547044  17.185735  3.104567  2.275003  -0.242629  -4.456556  0.886764  2.49077  -12.082245  2.869325  6.622371  -12.082246  2.869325  6.622371  -14.362648  27.223868  10.55503  177.257059  67.065431  -158.27337  20.3575  -13.703809  11.252799  69.760163  -1.887224  -2.4777  13.382757  -5.758788  15.473664  58.910014  9.074306  36.207368  -8.975532  -25.711349  -103.48026  62.787945  23.161945  4.663964  13.361975  -1.926906  0.267443  10.021382  -1.440148  0.242856  
0.0  101.685394  0.0  -1.460033  8.528377  -99.952585  10.167239  -23.291333  2.924563  -8.273015  14.993016  23.658374  4.411296  4.253573  4.155021  -13.59512  11.469343  0.559387  -4.752072  3.586342  17.25618  3.211881  2.311094  -0.266055  -4.48299  0.882213  2.469935  -12.155865  2.855741  6.565142  -12.155865  2.855741  6.565142  -14.256114  27.261172  10.412473  176.542363  67.124916  -158.734367  20.24536  -14.075075  11.457559  69.801339  -1.840582  -2.325882  13.392832  -5.745387  15.349124  58.693235  9.422677  36.258831  -8.856787  -25.534008  -103.261651  62.968215  22.383729  4.800348  13.314423  -1.840839  0.180363  9.985502  -1.377474  0.175486  
0.0  101.685394  0.0  -1.280384  8.950855  -99.802615  9.454576  -22.975937  2.782433  -8.138357  15.074151  23.742685  4.558892  4.276003  4.214312  -14.229907  11.659106  0.410139  -4.556524  3.641766  17.312255  3.226473  2.343058  -0.315285  -4.504751  0.885675  2.46291  -12.215346  2.865985  6.544339  -12.215347  2.865985  6.54434  -14.152488  27.291087  10.20397  175.874768  67.110951  -159.215888  20.260563  -14.646522  11.901919  69.820543  -1.832278  -2.149948  13.159557  -5.787606  15.044754  58.528602  9.779918  36.354733  -8.788967  -25.218426  -102.972721  63.318802  21.474638  5.069177  13.151148  -1.763104  0.035323  9.862684  -1.322294  0.064486  
0.0  101.685394  0.0  -1.167379  9.058187  -99.792961  9.046229  -22.801185  2.814156  -8.024333  15.144154  23.807464  4.676028  4.286695  4.243838  -14.825399  11.806112  0.314405  -4.217859  3.734294  17.371071  3.395078  2.366482  -0.341303  -4.498825  0.889427  2.472716  -12.198353  2.87741  6.570671  -12.198352  2.87741  6.57067  -14.088249  27.257654  10.018151  175.413884  67.145686  -159.406587  20.163569  -15.091173  12.221022  69.829919  -1.891799  -1.928177  13.208238  -5.895378  14.865449  58.400502  10.23122  36.412846  -8.913875  -24.756684  -102.568819  63.805495  20.486326  5.431548  13.066341  -1.713629  -0.103358  9.798735  -1.28813  -0.040878  
0.0  101.685394  0.0  -0.994769  9.279967  -99.711814  8.62867  -22.581509  2.832733  -7.892054  15.220687  23.869051  4.6596  4.279069  4.220835  -15.54766  11.977867  0.127603  -3.730166  3.816281  17.463526  3.436966  2.39363  -0.400582  -4.474714  0.903896  2.48242  -12.130723  2.916186  6.595703  -12.130721  2.916186  6.595703  -14.121059  27.223406  9.829565  175.303476  67.136056  -159.38853  20.222651  -15.720558  12.770964  69.818354  -2.006113  -1.614489  12.923671  -6.106344  14.599898  58.399449  10.733022  36.469876  -9.151742  -24.110527  -102.055859  64.375349  19.375043  5.74181  12.846996  -1.70359  -0.262508  9.633807  -1.283884  -0.161121  
0.0  101.685394  0.0  -0.865698  9.30389  -99.715734  8.272441  -22.391203  2.87657  -7.727457  15.271615  23.947023  4.749972  4.285053  4.247928  -15.975817  12.102124  0.069163  -3.399445  3.918129  17.499129  3.544799  2.412792  -0.426461  -4.446981  0.913829  2.485976  -12.05389  2.941141  6.604992  -12.05389  2.94114  6.604992  -14.019478  27.209723  9.759536  175.268421  67.165637  -159.164468  20.138739  -16.272855  13.247075  69.713084  -2.204294  -1.26311  13.022688  -6.308942  14.596863  58.349164  11.374185  36.428518  -9.544078  -23.367496  -101.455574  64.985101  18.268529  5.934768  12.717354  -1.690005  -0.346081  9.53637  -1.275362  -0.224472  
0.0  101.685394  0.0  -0.696911  9.410744  -99.693706  8.095544  -22.223066  3.00261  -7.676068  15.339244  23.944879  4.713025  4.248882  4.207017  -16.438033  12.265512  -0.046495  -2.948004  4.001783  17.592906  3.514314  2.424792  -0.474891  -4.422813  0.930009  2.487041  -11.986357  2.982984  6.606244  -11.986358  2.982984  6.606245  -13.71642  27.291516  9.737716  175.091232  67.24264  -158.990444  20.057869  -16.961757  13.861937  69.536815  -2.454345  -0.919375  12.890244  -6.548053  14.533975  58.464358  12.049943  36.409983  -9.990458  -22.513807  -100.757748  65.818224  17.037217  5.986802  12.594671  -1.692518  -0.396432  9.444223  -1.278204  -0.262538  
0.0  101.685394  0.0  -0.582693  9.396521  -99.773798  7.882743  -22.0417  3.112893  -7.616809  15.332361  23.990036  4.781115  4.260616  4.226806  -16.567759  12.376415  0.015912  -2.767835  4.108091  17.628546  3.545686  2.419261  -0.505516  -4.385139  0.937888  2.501377  -11.882007  3.003289  6.645817  -11.882007  3.003289  6.645817  -13.573305  27.321749  9.671007  175.136688  67.289866  -158.637597  19.870784  -17.625929  14.478695  69.366013  -2.724357  -0.529872  13.054268  -6.73346  14.613279  58.471602  12.835507  36.269519  -10.519393  -21.579362  -99.971533  66.973045  15.831445  6.0282  12.446666  -1.666588  -0.45533  9.333105  -1.259836  -0.307667  
0.0  101.685394  0.0  -0.461575  9.370564  -99.841461  7.906187  -21.908751  3.268743  -7.765471  15.3468  23.896038  4.71083  4.245125  4.185231  -16.584508  12.489199  0.085441  -2.46213  4.183523  17.720472  3.399304  2.392305  -0.577399  -4.321386  0.943677  2.522374  -11.706255  3.016452  6.705241  -11.706255  3.016452  6.705241  -13.215946  27.474831  9.617662  174.897241  67.362791  -158.424951  19.806511  -18.506609  15.249958  69.157606  -2.982242  -0.087852  12.866815  -6.942107  14.547692  58.664525  13.621114  36.183239  -11.034531  -20.390552  -99.00357  68.325357  14.527631  5.99369  12.294622  -1.661196  -0.508428  9.218946  -1.256731  -0.348026  
0.0  101.685394  0.0  -0.321979  9.373423  -99.864116  7.81468  -21.670019  3.278032  -7.801025  15.330018  23.933707  4.772386  4.243302  4.213852  -16.592218  12.632275  0.127307  -2.428668  4.296544  17.741505  3.423262  2.353226  -0.621509  -4.269813  0.951391  2.531824  -11.564173  3.033958  6.732283  -11.564173  3.033958  6.732283  -13.092706  27.511887  9.503064  174.786653  67.427436  -158.078742  19.647889  -19.280713  15.920441  68.976235  -3.271992  0.351642  13.042315  -7.131402  14.620551  58.664238  14.518779  35.96564  -11.668285  -18.947426  -97.903806  69.738893  13.175744  5.885975  12.100649  -1.622  -0.59242  9.073318  -1.228804  -0.412347  
0.0  101.685394  0.0  -0.210622  9.332141  -99.894921  7.961758  -21.555124  3.345687  -7.901049  15.334635  23.940106  4.707313  4.22499  4.179563  -16.356782  12.695135  0.248365  -2.384495  4.403656  17.785703  3.293483  2.309777  -0.703889  -4.197719  0.952733  2.542941  -11.366523  3.032315  6.766  -11.366522  3.032315  6.766  -12.558721  27.696789  9.510554  174.167373  67.591154  -157.947971  19.6322  -20.205108  16.702635  68.793674  -3.635146  0.733649  12.89408  -7.297049  14.570476  58.855363  15.380473  35.786754  -12.281877  -17.039436  -96.55481  71.3098  11.812857  5.767238  11.941308  -1.603465  -0.652122  8.953697  -1.215895  -0.457923  
0.0  101.685394  0.0  -0.025709  9.525211  -99.861283  7.820188  -21.254563  3.283919  -8.020246  15.333306  23.968069  4.74452  4.224781  4.189523  -16.413706  12.911162  0.263877  -2.509758  4.523308  17.768331  3.320439  2.261075  -0.749621  -4.14826  0.970748  2.538527  -11.229955  3.075641  6.753506  -11.229956  3.075641  6.753506  -12.421589  27.726253  9.485704  173.851258  67.717356  -157.627746  19.553563  -21.055817  17.472943  68.633926  -4.039717  0.991709  13.021265  -7.534158  14.619075  58.876369  16.319766  35.55676  -13.099472  -14.711303  -95.032824  73.215887  10.526572  5.630627  11.667703  -1.595914  -0.736405  8.748303  -1.211522  -0.522012  
0.0  101.685394  0.0  0.102781  9.711267  -99.898286  7.884934  -21.12281  3.356948  -8.098037  15.338789  24.041194  4.552206  4.206025  4.076581  -16.430008  13.046039  0.36117  -2.515215  4.615033  17.782694  3.215984  2.233877  -0.822377  -4.064761  0.968629  2.566451  -11.000611  3.06612  6.834234  -11.000611  3.06612  6.834233  -12.220115  27.891682  9.344368  172.970759  67.9627  -157.662662  19.472183  -21.999667  18.399985  68.482098  -4.495369  1.100065  12.760938  -7.727305  14.400037  57.380324  17.545954  34.459433  -12.405002  -11.064326  -92.964557  75.470652  9.245152  5.374272  11.354319  -1.580981  -0.85246  8.513014  -1.202069  -0.610169  
0.0  101.685394  0.0  0.26705  10.128187  -99.891492  7.570512  -20.835627  3.307  -8.223772  15.373174  24.059542  4.555948  4.194582  4.060473  -16.593666  13.282209  0.447677  -2.708918  4.739611  17.713142  3.213188  2.191915  -0.867689  -4.018672  0.980831  2.579271  -10.872898  3.096751  6.869602  -10.872897  3.096751  6.869602  -12.143309  27.901962  9.233424  172.097121  68.139571  -157.697697  19.199827  -22.91307  19.393754  68.317421  -4.93383  1.071941  12.806703  -7.981665  14.290611  57.524897  18.469206  34.273028  -13.326467  -7.694211  -91.006525  77.871426  8.067455  4.846845  10.972632  -1.579174  -0.977053  8.226454  -1.202387  -0.704649  
